<svg width="48" height="48" viewBox="0 0 48 48" fill="none" xmlns="http://www.w3.org/2000/svg">
    <path fill-rule="evenodd" clip-rule="evenodd" d="M5.64029 31.5994L5.05445 33.7436C4.83612 34.4294 4.53029 35.4369 4.36529 36.3336C4.13029 36.9536 4.00195 37.6261 4.00195 38.3286C4.00195 41.2253 6.19029 43.6103 9.00362 43.9219C9.79529 44.0361 10.6911 44.0303 11.6953 43.8828L16.3086 43.2461C17.4686 43.0861 18.4211 42.2486 18.7294 41.1186L21.9044 29.4569L5.64029 31.5994Z" fill="url(#paint0_linear_1780_20147)"/>
    <path d="M10.1401 32.1518C5.27763 32.9051 4.2793 36.5743 4.2793 36.5743L8.93596 19.4643L33.2685 16.1726L29.9501 28.2251C29.7776 28.8709 29.2351 29.3659 28.5626 29.4684L28.4268 29.4909L10.0035 32.1751L10.1401 32.1518Z" fill="url(#paint1_linear_1780_20147)"/>
    <path d="M10.1401 32.1518C5.27763 32.9051 4.2793 36.5743 4.2793 36.5743L8.93596 19.4643L33.2685 16.1726L29.9501 28.2251C29.7776 28.8709 29.2351 29.3659 28.5626 29.4684L28.4268 29.4909L10.0035 32.1751L10.1401 32.1518Z" fill="url(#paint2_linear_1780_20147)" fill-opacity="0.8"/>
    <path d="M12.8985 21.235L39.836 17.2558C40.4769 17.1683 40.996 16.6992 41.1594 16.085L43.9394 6.02417C43.9777 5.8875 43.9977 5.74333 43.9977 5.595C43.9977 4.71417 43.2844 4 42.4027 4C42.3344 4 42.266 4.00417 42.2002 4.0125L16.4969 7.81083C13.7052 8.25917 11.451 10.3183 10.7194 13.0042L7.0127 26.4383C7.75686 23.7208 8.21436 22.0825 12.8985 21.235Z" fill="url(#paint3_linear_1780_20147)"/>
    <path d="M12.8985 21.235L39.836 17.2558C40.4769 17.1683 40.996 16.6992 41.1594 16.085L43.9394 6.02417C43.9777 5.8875 43.9977 5.74333 43.9977 5.595C43.9977 4.71417 43.2844 4 42.4027 4C42.3344 4 42.266 4.00417 42.2002 4.0125L16.4969 7.81083C13.7052 8.25917 11.451 10.3183 10.7194 13.0042L7.0127 26.4383C7.75686 23.7208 8.21436 22.0825 12.8985 21.235Z" fill="url(#paint4_linear_1780_20147)"/>
    <path d="M12.8985 21.235L39.836 17.2558C40.4769 17.1683 40.996 16.6992 41.1594 16.085L43.9394 6.02417C43.9777 5.8875 43.9977 5.74333 43.9977 5.595C43.9977 4.71417 43.2844 4 42.4027 4C42.3344 4 42.266 4.00417 42.2002 4.0125L16.4969 7.81083C13.7052 8.25917 11.451 10.3183 10.7194 13.0042L7.0127 26.4383C7.75686 23.7208 8.21436 22.0825 12.8985 21.235Z" fill="url(#paint5_linear_1780_20147)" fill-opacity="0.4"/>
    <path d="M12.8993 21.2357C8.99846 21.9415 8.03013 23.1982 7.38513 25.1674L4.2793 36.5765C4.2793 36.5765 5.2718 32.944 10.0751 32.1674L28.4276 29.494L28.5635 29.4715C29.236 29.369 29.7785 28.8732 29.951 28.2282L32.681 18.3132L12.8993 21.2357Z" fill="url(#paint6_linear_1780_20147)"/>
    <path d="M12.8993 21.2357C8.99846 21.9415 8.03013 23.1982 7.38513 25.1674L4.2793 36.5765C4.2793 36.5765 5.2718 32.944 10.0751 32.1674L28.4276 29.494L28.5635 29.4715C29.236 29.369 29.7785 28.8732 29.951 28.2282L32.681 18.3132L12.8993 21.2357Z" fill="url(#paint7_linear_1780_20147)" fill-opacity="0.2"/>
    <path fill-rule="evenodd" clip-rule="evenodd" d="M10.0753 32.1675C6.01612 32.8241 4.68279 35.5125 4.36529 36.3316C4.13029 36.9533 4.00195 37.6258 4.00195 38.3283C4.00195 41.225 6.19029 43.61 9.00362 43.9216C9.79529 44.0358 10.6911 44.03 11.6953 43.8825L16.3086 43.2458C17.4686 43.0858 18.4211 42.2483 18.7294 41.1183L21.6236 30.4858L10.0761 32.1683L10.0753 32.1675Z" fill="url(#paint8_linear_1780_20147)"/>
    <defs>
      <linearGradient id="paint0_linear_1780_20147" x1="12.9528" y1="44.0011" x2="12.9528" y2="29.4569" gradientUnits="userSpaceOnUse">
        <stop offset="0.056" stop-color="#2AAC94"/>
        <stop offset="0.155" stop-color="#239C87"/>
        <stop offset="0.372" stop-color="#177E71"/>
        <stop offset="0.588" stop-color="#0E6961"/>
        <stop offset="0.799" stop-color="#095D57"/>
        <stop offset="1" stop-color="#085954"/>
      </linearGradient>
      <linearGradient id="paint1_linear_1780_20147" x1="31.3312" y1="33.4478" x2="17.2868" y2="18.1726" gradientUnits="userSpaceOnUse">
        <stop offset="0.0417478" stop-color="#ABE88E"/>
        <stop offset="0.548926" stop-color="#2AAA92"/>
        <stop offset="0.906" stop-color="#117865"/>
      </linearGradient>
      <linearGradient id="paint2_linear_1780_20147" x1="-3.18188" y1="32.7052" x2="10.1834" y2="28.1474" gradientUnits="userSpaceOnUse">
        <stop stop-color="#6AD6F9"/>
        <stop offset="1" stop-color="#6AD6F9" stop-opacity="0"/>
      </linearGradient>
      <linearGradient id="paint3_linear_1780_20147" x1="7.0127" y1="15.2192" x2="42.5885" y2="15.2192" gradientUnits="userSpaceOnUse">
        <stop offset="0.043" stop-color="#25FFD4"/>
        <stop offset="0.874" stop-color="#55DDB9"/>
      </linearGradient>
      <linearGradient id="paint4_linear_1780_20147" x1="7.0127" y1="10.2467" x2="39.0595" y2="25.1277" gradientUnits="userSpaceOnUse">
        <stop stop-color="#6AD6F9"/>
        <stop offset="0.229501" stop-color="#60E9D0"/>
        <stop offset="0.650711" stop-color="#6DE9BB"/>
        <stop offset="0.99354" stop-color="#ABE88E"/>
      </linearGradient>
      <linearGradient id="paint5_linear_1780_20147" x1="9.97737" y1="13.0313" x2="27.403" y2="16.8854" gradientUnits="userSpaceOnUse">
        <stop stop-color="white" stop-opacity="0"/>
        <stop offset="0.458511" stop-color="white"/>
        <stop offset="1" stop-color="white" stop-opacity="0"/>
      </linearGradient>
      <linearGradient id="paint6_linear_1780_20147" x1="15.7562" y1="27.9595" x2="16.168" y2="15.7393" gradientUnits="userSpaceOnUse">
        <stop offset="0.204642" stop-color="#063D3B" stop-opacity="0"/>
        <stop offset="0.58553" stop-color="#063D3B" stop-opacity="0.236587"/>
        <stop offset="0.872285" stop-color="#063D3B" stop-opacity="0.75"/>
      </linearGradient>
      <linearGradient id="paint7_linear_1780_20147" x1="2.81005" y1="26.7442" x2="17.7014" y2="29.5448" gradientUnits="userSpaceOnUse">
        <stop stop-color="white" stop-opacity="0"/>
        <stop offset="0.458511" stop-color="white"/>
        <stop offset="1" stop-color="white" stop-opacity="0"/>
      </linearGradient>
      <linearGradient id="paint8_linear_1780_20147" x1="13.567" y1="39.9708" x2="10.6622" y2="25.7642" gradientUnits="userSpaceOnUse">
        <stop offset="0.064" stop-color="#063D3B" stop-opacity="0"/>
        <stop offset="0.17" stop-color="#063D3B" stop-opacity="0.135"/>
        <stop offset="0.562" stop-color="#063D3B" stop-opacity="0.599"/>
        <stop offset="0.85" stop-color="#063D3B" stop-opacity="0.9"/>
        <stop offset="1" stop-color="#063D3B"/>
      </linearGradient>
    </defs>
  </svg>